<svg width="310" height="362" viewBox="0 0 310 362" fill="none" xmlns="http://www.w3.org/2000/svg">
<g clip-path="url(#clip0_20_554)">
<path d="M265.6 189.3C259.6 198.6 252.4 206.9 241.6 211.1C239.901 213.932 237.173 215.179 234.312 216.488C232.626 217.259 230.894 218.051 229.3 219.2C227.73 220.16 225.931 220.663 224.103 221.174C223.836 221.249 223.568 221.323 223.3 221.4C221.9 221.7 221.5 222.1 221.7 223.7C222.3 227.7 218.5 227.6 217.5 226.2C215.388 223.305 213.03 223.838 210.763 224.351C210.133 224.494 209.509 224.635 208.9 224.7C191.9 226.6 175.4 225.7 160.4 216.4C145 206.8 134 193.7 130.1 175.7C129.336 172.159 127.174 170.835 124.752 169.353C123.686 168.7 122.57 168.017 121.5 167.1C128.439 166.815 128.331 162.464 128.217 157.912C128.211 157.675 128.205 157.437 128.2 157.2C128 149.3 129.7 141.8 134.4 135.2C128.5 128.7 127.2 123 130.2 116.8C132.9 111.1 139 107.8 145.2 108.3C149.2 108.6 152.3 110.8 155.2 113.3C157.29 111.994 159.551 111.327 161.816 110.66C163.018 110.305 164.221 109.951 165.4 109.5C165.906 109.307 166.5 109.213 167.106 109.117C169.015 108.814 171.052 108.491 170.9 105C170.8 103.6 174.7 102 176.3 104.6C177.646 106.788 179.276 106.993 181.248 107.241C181.62 107.288 182.004 107.337 182.4 107.4C182.89 107.471 183.382 107.54 183.874 107.609C188.907 108.314 194.01 109.03 198.2 112.4C206.4 106.7 214.1 107.1 219.9 113.6C225.6 120 225 127.5 218 135.3C221 141.3 221.7 147.7 220.9 154.1C220.728 155.307 220.522 156.506 220.317 157.704C219.808 160.673 219.3 163.636 219.3 166.7C219.3 169.1 219.3 172.4 215 171.5C214.5 171.4 213.7 171.9 213.3 172.3C206.6 180.2 197.5 183.5 187.9 186C187.74 186.036 187.574 186.065 187.405 186.094C186.625 186.232 185.793 186.378 185.3 187.2C198.5 190.4 210.5 187.6 220.8 179C239.2 163.7 243.2 143 235.2 119.9C235.027 119.467 234.754 119.017 234.479 118.565C233.802 117.452 233.118 116.325 233.9 115.4C235.981 113.03 236.992 110.16 237.997 107.309C238.731 105.228 239.461 103.157 240.6 101.3C243.302 96.9098 243.449 92.1547 243.599 87.3119C243.671 84.9846 243.743 82.637 244.1 80.3C240.1 83.4 236.3 86 231.3 86.8C230.255 86.9622 229.197 87.0919 228.136 87.2219C223.311 87.8134 218.435 88.411 214.5 92.1C213.519 93.0812 212.378 92.3914 211.292 91.7342C211.16 91.6546 211.03 91.5756 210.9 91.5C202.5 86.4 193.6 83.1 183.8 82.1C183.723 82.0948 183.644 82.09 183.564 82.085C182.09 81.9936 180.2 81.8766 180.2 79.6C180.148 76.8779 178.232 76.5399 176.332 76.2046C174.602 75.8995 172.886 75.5967 172.6 73.5C172.469 73.5438 172.279 73.5685 172.108 73.5907C171.889 73.6192 171.7 73.6438 171.7 73.7C171.662 74.8687 170.658 75.682 169.663 76.4883C168.018 77.8209 166.397 79.1341 169.2 82C160.3 83.1 152.3 85.4 144.9 89.3C140.8 91.4 137.6 92.8 133.4 89.4C131.673 87.9733 129.382 87.7307 127.078 87.4866C126.313 87.4057 125.547 87.3245 124.8 87.2C122.422 86.8112 119.981 86.616 117.537 86.4205C109.294 85.761 101.016 85.0989 95.0001 77C93.9407 80.377 95.1173 82.8771 96.2365 85.2551C96.8075 86.4684 97.3636 87.65 97.6001 88.9C98.0001 89.2 98.4001 89.5 97.8001 89.9L97.2001 89.3C96.0001 89.3 95.2001 89.5 95.8001 91C95.9984 91.5206 96.2951 92.0289 96.5925 92.5386C97.495 94.085 98.4052 95.6445 96.6001 97.6C96.1001 98.2 97.1001 99.3 97.8001 99.5C100.52 100.235 101.402 102.375 102.275 104.489C102.589 105.252 102.903 106.011 103.3 106.7C103.686 107.402 104.207 108.091 104.726 108.777C105.685 110.045 106.635 111.302 106.7 112.6C106.748 113.952 105.748 114.092 104.565 114.257C103.298 114.434 101.821 114.641 101.2 116.4C106.3 116.7 107.6 119.2 104.7 123.3C105.569 124.015 106.359 123.765 107.125 123.522C107.857 123.289 108.567 123.064 109.3 123.7C109.373 125.15 108.762 126.442 108.154 127.729C107.923 128.217 107.693 128.705 107.5 129.2C101.4 144.4 99.4001 160.3 103 176.2C111.2 212.6 133 237 169 248.1C169.095 248.128 169.19 248.155 169.283 248.182C172.941 249.237 175.628 250.012 172.8 254.4C173.847 254.819 174.784 254.142 175.511 253.616C176.174 253.138 176.662 252.785 176.9 253.5C177.725 255.976 179.458 256.151 181.167 256.324C182.564 256.466 183.945 256.605 184.8 258C185.32 256.441 184.841 255.288 184.372 254.16C183.939 253.118 183.516 252.097 183.9 250.8C195 252.7 206.1 252 217 249.7C248.2 243 273.9 227.7 290.4 199.5C307.3 170.6 312.8 139.7 304.7 106.8C304 104 303.9 101.9 307.3 101.2C308.1 101 309.8 99.9 308.6 99.3C306.324 98.2332 306.679 96.8628 307.037 95.4768C307.183 94.914 307.329 94.3487 307.3 93.8C307.3 93.5714 307.339 93.3341 307.376 93.1061C307.519 92.2373 307.639 91.5039 305.5 91.9C302.1 92.5 299.7 90.7 298.2 86.7C289.6 63.2 274.8 44.2 255.2 29C221.7 2.89999 183.1 -4.20001 142 2.19999C93.7001 9.79999 55.4001 34 28.1001 75.1C27.9085 75.3874 27.7455 75.7208 27.5783 76.063C27.0474 77.1491 26.4731 78.324 24.8001 78.4C24.5751 77.8858 24.4431 77.2579 24.3145 76.6459C24.0428 75.3537 23.7859 74.1321 22.7001 74.2C21.442 74.2899 19.9416 75.5911 18.6344 76.7248C18.487 76.8526 18.342 76.9784 18.2001 77.1C14.0001 80.7 15.6001 82.5 20.0001 83.4C23.0605 84.0301 22.1509 85.4703 21.2823 86.8457C21.1859 86.9983 21.09 87.1502 21.0001 87.3C17.5001 93.4 14.7001 99.8 12.2001 106.3C-6.69988 156 -2.49988 205.1 17.0001 253.6C22.3001 266.7 29.4001 278.8 37.9001 289.9C37.2554 290.729 36.5046 290.519 35.7748 290.314C34.9198 290.075 34.0935 289.843 33.5001 291.3C32.5743 293.522 33.7817 294.563 34.9828 295.598C35.7278 296.241 36.4704 296.881 36.7001 297.8C36.9001 299 38.1001 298.4 38.6001 297.8C41.4247 294.205 42.9306 296.251 44.4346 298.295C44.6877 298.639 44.9408 298.983 45.2001 299.3C53.3001 309.1 62.2001 318.1 72.0001 326.1C94.2001 344.3 119.9 354.6 147.9 359.4C156 360.8 164.3 361.9 172.6 361.5C172.15 361.125 171.7 360.919 171.25 360.712C171.1 360.644 170.95 360.575 170.8 360.5C168.4 359.2 166.5 355.5 167 354.6C168.6 351.6 168.6 351.3 165 351C162.4 350.8 160.5 350.8 158.6 352.6C156.5 354.7 154.1 353.7 151.7 352.7C121.1 339.4 95.4001 319.8 73.8001 294.2C50.6001 266.7 34.3001 236.3 28.8001 200.5C28.1001 195.9 28.1001 193.1 33.7001 193.4C34.3001 193.4 35.3001 193.1 35.6001 191.8C35.4801 191.733 35.3574 191.667 35.2336 191.599C33.5018 190.658 31.5669 189.607 33.9001 186.9C34.626 186.094 34.051 185.742 33.2767 185.269C33.0909 185.156 32.8936 185.035 32.7001 184.9C31.964 184.327 30.9603 184.574 30.0173 184.806C28.6544 185.142 27.4183 185.446 27.3001 183.2C27.2583 182.33 27.215 181.459 27.1718 180.589C26.6984 171.061 26.2256 161.546 27.6001 152.2C34.1001 107.1 55.2001 71.1 94.6001 46.8C112.3 35.9 131.6 29.6 152.3 27.6L152.334 27.5971C154.721 27.3982 156.893 27.2171 155.5 30.8C154.792 32.7479 156.357 33.9902 157.558 34.9435C157.713 35.0669 157.863 35.1854 158 35.3C159.186 36.2879 159.883 34.543 160.286 33.5365L160.3 33.5C160.8 32.3 161.2 32.6 161.9 33.4C161.933 33.4419 161.966 33.4846 161.999 33.5279C162.685 34.4156 163.556 35.5442 164.7 34.4C165.7 33.6 165.3 32.2 164.9 31.1C163.4 27.1 165.6 26.8 168.8 26.7C175 26.6 181.2 27.1 187.2 28.1C227.8 34.7 257.1 56.6 273.2 94.5C287 127 285.2 159.2 265.6 189.3Z" fill="#F086A9"/>
<path d="M161.801 109.665C159.521 110.365 157.244 111.065 155.139 112.326C156.733 114.611 157.729 116.868 158.237 119.037H155.517V131.621C153.398 134.356 150.434 136.284 147.361 136.994C142.412 138.217 138.17 136.892 134.029 134.344C129.282 141.071 127.565 148.717 127.767 156.769C127.772 157.011 127.778 157.253 127.784 157.495C127.899 162.135 128.008 166.57 121 166.861C122.08 167.795 123.208 168.492 124.285 169.157C126.731 170.668 128.915 172.017 129.686 175.627C133.524 193.975 144.735 207.329 160.29 217.114C175.44 226.696 192.105 227.613 209.275 225.575C209.877 225.51 210.492 225.376 211.114 225.24C213.417 224.738 215.814 224.215 217.962 227.104C218.972 228.531 222.81 228.633 222.204 224.555C222.002 222.924 222.406 222.619 223.82 222.211C224.184 222.101 224.555 221.994 224.929 221.886C226.628 221.396 228.39 220.887 229.88 219.968C231.144 219.253 232.511 218.708 233.878 218.164C236.991 216.924 240.105 215.683 242 212.425C240.815 211.947 239.692 212.341 238.583 212.731C238.273 212.84 237.965 212.948 237.657 213.037C229.474 215.484 221.12 215.349 212.809 215.216C210.041 215.171 207.278 215.127 204.528 215.178C204.247 214.041 204.946 213.014 205.543 212.138C206.231 211.129 206.782 210.321 205.538 209.775C205.064 209.56 204.585 209.266 204.087 208.961C202.462 207.965 200.639 206.848 198.165 207.94C196.326 208.745 196.534 209.887 196.732 210.98C196.861 211.688 196.986 212.374 196.549 212.935C177.359 208.96 159.078 196.422 157.159 185.821C159.598 186.006 162.044 186.225 164.495 186.446C171.483 187.073 178.512 187.704 185.54 187.553C186.038 186.715 186.878 186.566 187.666 186.426C187.837 186.396 188.005 186.366 188.166 186.33C197.862 183.782 207.053 180.418 213.821 172.365C214.225 171.856 215.033 171.448 215.538 171.55C219.881 172.569 219.881 169.205 219.881 166.657C219.881 163.533 220.394 160.514 220.908 157.487C221.115 156.266 221.322 155.044 221.497 153.813C222.305 147.289 221.598 140.766 218.568 134.65C212.407 138.625 206.043 139.237 199.983 134.548C194.832 130.572 193.216 125.17 194.529 118.85C195.008 116.046 196.669 113.884 198.303 111.755C198.392 111.64 198.481 111.524 198.569 111.409C194.337 107.973 189.183 107.244 184.1 106.525C183.602 106.455 183.106 106.385 182.611 106.312C182.325 106.276 182.044 106.246 181.767 106.216C179.694 105.992 177.875 105.796 176.45 103.458C174.834 100.706 170.895 102.438 170.996 103.866C171.15 107.436 169.136 107.756 167.186 108.065C166.575 108.162 165.971 108.258 165.441 108.453C164.244 108.915 163.022 109.29 161.801 109.665Z" fill="#F6BDD1"/>
<path d="M119.672 103.15C121.931 106.517 120.64 110.094 117.521 110.831C114.509 111.567 110.744 109.884 109.561 106.096C108.486 102.624 107.733 99.0471 106.872 95.47C106.227 92.7345 105.474 90.1042 103 88C111.497 89.1573 120.102 89.3677 128.062 92.9449C129.245 93.471 131.289 93.7866 130.966 95.47C130.643 97.1533 128.922 97.7846 127.201 97.7846C126.233 97.7846 125.158 97.8898 124.082 97.8898C124.405 99.6784 126.771 99.2576 126.771 101.572C124.405 102.203 122.038 102.624 119.672 103.15Z" fill="#E94777"/>
<path d="M224.48 96.5976C222.674 95.7781 221.517 96.5228 220.147 96.9556C218.776 97.3883 217.102 99.2902 216.13 97.3103C215.268 95.7482 217.479 94.6786 218.526 93.6208C221.354 90.8695 225.159 90.5168 228.645 89.958C232.552 89.2902 236.458 88.4129 241.834 86.4736C236.296 93.3365 237.862 101.698 232.31 107.2C231.262 108.153 230.436 110.151 228.52 109.019C227.137 108.195 226.595 106.944 226.261 105.272C225.924 103.39 227.457 98.0336 221.881 101.127C221.566 101.34 220.717 101.034 220.502 100.722C220.072 100.098 220.382 99.3618 221.013 98.9365C221.956 98.0892 223.114 97.4492 224.48 96.5976Z" fill="#E94878"/>
<path d="M191.683 131.504C191.788 138.137 186.087 142.137 180.174 139.4C177.852 138.347 176.374 138.347 174.262 139.716C171.095 141.716 167.505 142.137 164.654 139.084C161.698 135.926 161.487 132.136 162.965 128.346C163.598 126.872 164.76 125.609 166.66 126.346C168.349 126.978 168.244 128.346 167.716 129.82C166.766 132.241 166.027 134.978 169.088 136.031C171.939 136.979 173.628 134.768 174.368 132.241C174.79 130.662 175.107 128.873 177.007 128.873C179.013 128.873 179.224 130.662 179.752 132.136C180.491 134.347 182.075 135.821 184.503 135.294C186.932 134.768 187.248 132.873 186.826 130.767C186.404 128.873 184.82 126.241 187.882 125.609C191.155 124.978 190.838 128.346 191.577 130.241C191.683 130.662 191.577 131.189 191.683 131.504Z" fill="#A12446"/>
<path d="M159 122.5C159 131.06 152.06 138 143.5 138C134.94 138 128 131.06 128 122.5C128 113.94 134.94 107 143.5 107C152.06 107 159 113.94 159 122.5ZM133.2 122.5C133.2 128.188 137.812 132.8 143.5 132.8C149.188 132.8 153.8 128.188 153.8 122.5C153.8 116.812 149.188 112.2 143.5 112.2C137.812 112.2 133.2 116.812 133.2 122.5Z" fill="#A12446"/>
<path d="M142.981 111.911C148.915 111.809 153.724 116.515 153.826 122.347C153.928 128.281 149.222 133.089 143.288 133.089C137.354 133.191 132.545 128.485 132.443 122.653C132.341 116.822 137.047 112.013 142.981 111.911Z" fill="#FAE0E9"/>
<path d="M224.35 122.5C224.35 131.06 217.411 138 208.85 138C200.29 138 193.35 131.06 193.35 122.5C193.35 113.94 200.29 107 208.85 107C217.411 107 224.35 113.94 224.35 122.5ZM198.551 122.5C198.551 128.188 203.162 132.8 208.85 132.8C214.538 132.8 219.15 128.188 219.15 122.5C219.15 116.812 214.538 112.2 208.85 112.2C203.162 112.2 198.551 116.812 198.551 122.5Z" fill="#A12446"/>
<path d="M208.331 111.911C214.265 111.809 219.074 116.515 219.176 122.347C219.278 128.281 214.572 133.089 208.638 133.089C202.704 133.191 197.895 128.485 197.793 122.653C197.691 116.822 202.397 112.013 208.331 111.911Z" fill="#FAE0E9"/>
</g>
<defs>
<clipPath id="clip0_20_554">
<rect width="309.1" height="361.6" fill="white"/>
</clipPath>
</defs>
</svg>
