<?xml version="1.0" encoding="UTF-8" standalone="no"?>
<!-- Created with Inkscape (http://www.inkscape.org/) -->

<svg
   width="512mm"
   height="512mm"
   viewBox="0 0 512 512"
   version="1.1"
   id="svg5"
   inkscape:version="1.1.2 (0a00cf5339, 2022-02-04)"
   sodipodi:docname="NixOwO.svg"
   xmlns:inkscape="http://www.inkscape.org/namespaces/inkscape"
   xmlns:sodipodi="http://sodipodi.sourceforge.net/DTD/sodipodi-0.dtd"
   xmlns="http://www.w3.org/2000/svg"
   xmlns:svg="http://www.w3.org/2000/svg">
  <sodipodi:namedview
     id="namedview7"
     pagecolor="#505050"
     bordercolor="#ffffff"
     borderopacity="1"
     inkscape:pageshadow="0"
     inkscape:pageopacity="0"
     inkscape:pagecheckerboard="1"
     inkscape:document-units="mm"
     showgrid="false"
     inkscape:zoom="0.56681451"
     inkscape:cx="995.03452"
     inkscape:cy="965.92446"
     inkscape:window-width="1920"
     inkscape:window-height="1059"
     inkscape:window-x="0"
     inkscape:window-y="0"
     inkscape:window-maximized="1"
     inkscape:current-layer="layer10"
     showguides="true"
     inkscape:guide-bbox="true"
     inkscape:snap-bbox="true"
     inkscape:bbox-paths="true"
     inkscape:bbox-nodes="true"
     inkscape:snap-bbox-edge-midpoints="true"
     inkscape:snap-bbox-midpoints="true"
     inkscape:object-paths="true"
     inkscape:snap-intersection-paths="true"
     inkscape:snap-smooth-nodes="true"
     inkscape:snap-midpoints="true"
     inkscape:snap-object-midpoints="true"
     inkscape:snap-center="true"
     inkscape:snap-text-baseline="true"
     inkscape:snap-page="true"
     inkscape:snap-global="false" />
  <defs
     id="defs2" />
  <g
     inkscape:groupmode="layer"
     id="layer10"
     inkscape:label="tail bottom"
     style="display:inline">
    <path
       style="display:inline;opacity:1;fill:none;fill-opacity:1;stroke:#4a89da;stroke-width:11.1125;stroke-linecap:round;stroke-linejoin:round;stroke-miterlimit:4;stroke-dasharray:none;stroke-opacity:1"
       d="m 140.85077,354.80539 c -4.29966,4.85044 -27.28737,53.85801 5.53065,74.87633 29.57076,18.93861 64.79898,7.799 133.86187,-18.82372 68.93337,-26.57278 124.64163,-69.57028 197.68377,-77.72036"
       id="path1902"
       sodipodi:nodetypes="cssc" />
  </g>
  <g
     inkscape:groupmode="layer"
     id="layer8"
     inkscape:label="ears"
     style="display:inline">
    <g
       inkscape:label="print-logo"
       id="layer1-3-5"
       style="display:inline"
       transform="matrix(1.0205228,0,0,1.0205228,-159.54722,986.30687)">
      <path
         style="color:#000000;clip-rule:nonzero;display:inline;overflow:visible;visibility:visible;opacity:1;isolation:auto;mix-blend-mode:normal;color-interpolation:sRGB;color-interpolation-filters:linearRGB;solid-color:#000000;solid-opacity:1;fill:#5277c3;fill-opacity:1;fill-rule:evenodd;stroke:none;stroke-width:3;stroke-linecap:butt;stroke-linejoin:round;stroke-miterlimit:4;stroke-dasharray:none;stroke-dashoffset:0;stroke-opacity:1;color-rendering:auto;image-rendering:auto;shape-rendering:auto;text-rendering:auto;enable-background:accumulate"
         d="m 309.40365,-710.2521 122.19683,211.6751 -56.15706,0.5268 -32.6236,-56.8692 -32.85645,56.5653 -27.90237,-0.011 -14.29086,-24.6896 46.81047,-80.4902 -33.22946,-57.8256 z"
         id="path4861-0"
         inkscape:connector-curvature="0"
         sodipodi:nodetypes="cccccccccc" />
      <path
         style="color:#000000;clip-rule:nonzero;display:inline;overflow:visible;visibility:visible;opacity:1;isolation:auto;mix-blend-mode:normal;color-interpolation:sRGB;color-interpolation-filters:linearRGB;solid-color:#000000;solid-opacity:1;fill:#7ebae4;fill-opacity:1;fill-rule:evenodd;stroke:none;stroke-width:3;stroke-linecap:butt;stroke-linejoin:round;stroke-miterlimit:4;stroke-dasharray:none;stroke-dashoffset:0;stroke-opacity:1;color-rendering:auto;image-rendering:auto;shape-rendering:auto;text-rendering:auto;enable-background:accumulate"
         d="m 353.50926,-797.4433 -122.21756,211.6631 -28.53477,-48.37 32.93839,-56.6875 -65.41521,-0.1719 -13.9414,-24.1698 14.23637,-24.721 93.11177,0.2939 3.86907,-6.67015 c -33.0079,-24.80687 -36.2529,-52.93237 -54.19918,-103.90502 35.26476,7.88289 58.82703,14.26396 83.79382,52.88487 z"
         id="use4863-3"
         inkscape:connector-curvature="0"
         sodipodi:nodetypes="cccccccccccc" />
      <path
         style="color:#000000;clip-rule:nonzero;display:inline;overflow:visible;visibility:visible;opacity:1;isolation:auto;mix-blend-mode:normal;color-interpolation:sRGB;color-interpolation-filters:linearRGB;solid-color:#000000;solid-opacity:1;fill:#7ebae4;fill-opacity:1;fill-rule:evenodd;stroke:none;stroke-width:3;stroke-linecap:butt;stroke-linejoin:round;stroke-miterlimit:4;stroke-dasharray:none;stroke-dashoffset:0;stroke-opacity:1;color-rendering:auto;image-rendering:auto;shape-rendering:auto;text-rendering:auto;enable-background:accumulate"
         d="m 362.88537,-628.243 244.41439,0.012 -27.62229,48.8968 -65.56199,-0.1817 32.55876,56.7371 -13.96098,24.1585 -28.52722,0.032 -46.3013,-80.7841 -66.69317,-0.1353 z"
         id="use4865-6"
         inkscape:connector-curvature="0"
         sodipodi:nodetypes="cccccccccc" />
      <path
         style="color:#000000;clip-rule:nonzero;display:inline;overflow:visible;visibility:visible;opacity:1;isolation:auto;mix-blend-mode:normal;color-interpolation:sRGB;color-interpolation-filters:linearRGB;solid-color:#000000;solid-opacity:1;fill:#80bbe9;fill-opacity:1;fill-rule:evenodd;stroke:none;stroke-width:3;stroke-linecap:butt;stroke-linejoin:round;stroke-miterlimit:4;stroke-dasharray:none;stroke-dashoffset:0;stroke-opacity:1;color-rendering:auto;image-rendering:auto;shape-rendering:auto;text-rendering:auto;enable-background:accumulate"
         d="m 505.14318,-720.9886 -122.19683,-211.6751 56.15706,-0.5268 32.6236,56.8692 32.85645,-56.5653 27.90237,0.011 14.29086,24.6896 -46.81047,80.4902 1.96628,3.42172 c 36.5901,-18.0629 90.74083,-39.36143 105.41177,-42.11993 -1.50961,6.87754 -4.75773,24.26943 -9.72357,43.05201 -8.60956,32.56445 -26.61654,72.43838 -63.48808,62.6224 -5.62116,2.06325 -8.9758,4.85713 -11.50318,9.26111 z"
         id="use4867-1"
         inkscape:connector-curvature="0"
         sodipodi:nodetypes="ccccccccccscsc" />
      <path
         sodipodi:nodetypes="cccccccccc"
         inkscape:connector-curvature="0"
         id="path4873-0"
         d="m 309.40365,-710.2521 122.19683,211.6751 -56.15706,0.5268 -32.6236,-56.8692 -32.85645,56.5653 -27.90237,-0.011 -14.29086,-24.6896 46.81047,-80.4902 -33.22946,-57.8256 z"
         style="color:#000000;clip-rule:nonzero;display:inline;overflow:visible;visibility:visible;opacity:1;isolation:auto;mix-blend-mode:normal;color-interpolation:sRGB;color-interpolation-filters:linearRGB;solid-color:#000000;solid-opacity:1;fill:#5277c3;fill-opacity:1;fill-rule:evenodd;stroke:none;stroke-width:3;stroke-linecap:butt;stroke-linejoin:round;stroke-miterlimit:4;stroke-dasharray:none;stroke-dashoffset:0;stroke-opacity:1;color-rendering:auto;image-rendering:auto;shape-rendering:auto;text-rendering:auto;enable-background:accumulate" />
      <path
         sodipodi:nodetypes="ccccccccssccssssssssssssssc"
         inkscape:connector-curvature="0"
         id="use4875-6"
         d="m 314.49148,-827.19196 -14.3852,-25.06778 -32.55875,-56.73717 13.96097,-24.15851 28.52722,-0.0315 46.3013,80.78414 66.69317,0.13524 28.30621,48.7349 -135.05899,-0.007 c -10.59094,-5.5e-4 -18.45103,10.66989 -12.74368,22.40943 1.91207,3.93296 -2.76773,5.95126 -5.1317,2.43337 -23.0007,-41.1748 -37.37536,-61.12309 -82.84195,-68.29836 13.98671,21.26368 16.77352,84.5103 61.26223,100.70735 1.65727,0.60336 3.90416,2.39192 0.39942,2.44773 -2.5884,0.0412 -5.56201,-1.40899 -7.80117,-1.25419 -1.1654,0.0806 -2.51727,0.22113 -3.22002,1.15429 -1.10901,1.47263 -2.79049,1.42731 -4.18833,0.34538 -31.60161,-24.45943 -42.12872,-95.39429 -51.26332,-105.71943 -1.30802,-1.47851 -3.69947,-2.56163 -5.56452,-1.8354 -1.12384,0.43762 -1.60327,-0.18123 -0.64345,-0.83132 3.94604,-2.67264 5.8071,-2.08491 6.05964,-2.39356 0.16807,-0.20541 -1.87471,-3.88382 -2.50388,-7.84825 -0.14207,-0.8952 0.58492,-1.47754 1.08643,-0.3319 5.47786,12.51363 22.78162,13.66168 28.92068,14.86349 23.19813,4.54137 34.08303,10.96458 58.84836,29.09404 3.80889,2.7883 11.58549,1.66927 13.95397,-2.41394 1e-4,-1.8e-4 3.58536,-6.18105 3.58536,-6.18105 z"
         style="color:#000000;clip-rule:nonzero;display:inline;overflow:visible;visibility:visible;opacity:1;isolation:auto;mix-blend-mode:normal;color-interpolation:sRGB;color-interpolation-filters:linearRGB;solid-color:#000000;solid-opacity:1;fill:#5277c3;fill-opacity:1;fill-rule:evenodd;stroke:none;stroke-width:3;stroke-linecap:butt;stroke-linejoin:round;stroke-miterlimit:4;stroke-dasharray:none;stroke-dashoffset:0;stroke-opacity:1;color-rendering:auto;image-rendering:auto;shape-rendering:auto;text-rendering:auto;enable-background:accumulate" />
      <path
         sodipodi:nodetypes="scccccccsssssscssscsssssssssss"
         inkscape:connector-curvature="0"
         id="use4877-3"
         d="m 535.66452,-763.37263 -74.79274,129.53013 56.35871,-0.1464 33.46371,-57.6904 93.11177,0.294 14.23636,-24.7211 -13.9414,-24.1698 -72.3131,-0.1718 -8.41938,-13.10304 c -1.80975,-2.8165 0.7268,-5.86697 5.01887,-8.60032 9.6126,-6.12167 16.57492,-15.14195 21.72155,-28.03756 3.03199,-7.59708 14.56824,-52.92503 21.77869,-75.4605 1.28832,-4.02651 8.51432,-10.8928 12.71897,-14.3564 1.36061,-1.12081 0.51299,-2.97764 -1.47382,-2.11956 -4.22173,1.8233 -12.29445,7.03867 -12.29445,7.03867 0,0 2.21784,-6.1912 2.08794,-9.26195 -0.10365,-2.45031 -2.19358,-1.74835 -3.14294,0.4244 -1.98908,4.5523 -3.62578,8.68885 -6.53818,11.44243 -19.57712,18.50951 -67.93813,9.15478 -101.31258,48.20774 0,0 8.70757,23.05443 9.60872,37.52227 0.32324,5.18949 4.37638,2.86228 4.94581,0.15789 2.24964,-10.68422 10.42951,-10.79646 14.12817,-8.64831 0.75516,0.43859 -0.0808,-2.29252 -3.46125,-3.42442 -0.54692,-0.18313 -0.43158,-0.70621 0.0382,-0.85285 3.12917,-0.97673 4.81835,-5.49753 3.27836,-4.40015 -4.09631,2.91898 -9.61353,0.58824 -5.30023,-7.0341 19.71566,-34.84095 39.8433,-32.24111 73.40083,-50.83419 2.91336,-1.61419 7.35875,-0.69079 6.18668,3.50829 -11.67755,41.83625 -17.45136,94.05585 -67.25815,94.05622 -0.69716,10e-6 -1.52202,0.30857 -1.83512,0.85081 z"
         style="color:#000000;clip-rule:nonzero;display:inline;overflow:visible;visibility:visible;opacity:1;isolation:auto;mix-blend-mode:normal;color-interpolation:sRGB;color-interpolation-filters:linearRGB;solid-color:#000000;solid-opacity:1;fill:#5277c3;fill-opacity:1;fill-rule:evenodd;stroke:none;stroke-width:3;stroke-linecap:butt;stroke-linejoin:round;stroke-miterlimit:4;stroke-dasharray:none;stroke-dashoffset:0;stroke-opacity:1;color-rendering:auto;image-rendering:auto;shape-rendering:auto;text-rendering:auto;enable-background:accumulate" />
      <path
         style="fill:#5277c3;fill-opacity:1;stroke:none;stroke-width:0.259263px;stroke-linecap:butt;stroke-linejoin:miter;stroke-opacity:1"
         d="m 263.42924,-774.14557 c -1.88666,-0.6921 -3.3155,-1.07912 -2.16974,-1.53777 0.67306,-0.26943 1.97387,-0.57374 2.53838,-1.14814 0.23417,-0.23828 -0.0963,-0.44833 -0.30699,-1.01403 -0.55071,-1.47868 1.97051,1.5801 3.70687,0.69574 0.83678,-0.42619 -2.88335,-2.8624 -3.78181,-3.70216 -0.35098,-0.32805 0.69946,-0.33515 0.54316,-0.57765 -2.69331,-4.17872 -6.2807,-3.94284 -5.3164,-4.79579 1.10891,-0.98087 2.57938,-0.45264 2.6491,-0.656 0.31228,-0.91083 -3.26962,-2.73369 -3.65435,-3.72025 -0.57419,-1.4724 3.50912,1.5366 3.13878,0.60665 l -0.61555,-1.54569 c -1.02209,-2.56655 5.07056,4.51723 4.66696,2.57615 -0.31104,-1.49588 -1.9133,-1.84943 -1.26434,-2.68185 0.60527,-0.77636 4.54924,3.9616 5.11823,3.87892 1.07526,-0.15624 -0.455,-3.14792 0.63039,-3.19811 0.45823,-0.0212 2.33582,3.18234 2.63771,3.36023 1.25776,0.74112 -0.10774,-2.4379 -1.68852,-3.59855 -0.9045,-0.66411 1.73475,-0.78483 2.82195,0.47954 1.1619,1.35124 -0.41995,-1.85805 0.0241,-1.73082 1.56805,0.44929 1.60491,2.77261 2.5241,4.04015 1.22709,1.69213 2.81843,3.56484 3.42814,4.14837 1.86088,1.78101 -0.80308,-3.75079 1.26046,-4.49448 0.57882,-0.2086 -0.3204,1.89731 3.62035,5.33037 2.89244,2.51981 4.70748,3.04726 4.70959,3.37671 0.005,0.78698 -1.9442,1.30296 -3.71382,2.15461 -1.32504,0.63769 -1.97326,1.82723 -2.4581,1.98875 -1.16451,0.38795 -3.39375,-1.15838 -3.63405,-0.59412 -0.116,0.27238 2.45279,1.83854 1.60503,2.84977 -1.18406,1.41239 -2.75999,4.16779 -3.16496,6.86613 -0.59407,3.95828 0.2837,6.686 -0.45968,5.71791 -1.41597,-1.84398 -2.45196,-4.66736 -3.97741,-6.24027 -2.74769,-2.83315 -6.08244,-5.61086 -9.41758,-6.83432 z"
         id="path1427"
         sodipodi:nodetypes="sssssssssssssssssssssssssssssssss" />
    </g>
    <path
       style="fill:#5277c3;fill-opacity:1;stroke:none;stroke-width:0.529167;stroke-linecap:round;stroke-linejoin:round;stroke-miterlimit:4;stroke-dasharray:none;stroke-opacity:1"
       d="m 376.65715,177.63613 c 9.61391,-1.16342 8.09818,-11.23468 9.39087,-9.10093 0.79403,1.31064 1.05581,3.76354 0.82824,4.94492 -0.53092,2.75615 1.29283,-1.3614 2.79154,-3.2549 1.05094,-1.32778 1.95488,-3.61551 1.78838,-4.63768 -0.45187,-2.77411 1.74046,-0.45063 1.44232,3.2049 -0.17466,2.14157 3.70611,-2.16875 5.50307,-1.33219 1.46586,0.68242 -4.88402,3.75865 -2.33841,4.68578 1.23313,0.44911 2.7509,0.76153 3.88653,0.44336 1.5162,-0.4248 2.5955,-1.83085 2.09641,-0.402 -0.71636,2.05089 -2.68117,3.21339 -4.5811,4.06861 -2.12441,0.95627 1.90861,1.44464 0.60047,2.09521 -1.77578,0.88314 -2.81724,-0.41325 -3.70361,2.0045 -0.39613,1.08052 4.20007,1.01048 2.99285,2.0818 -1.87856,1.66709 -5.17249,1.29685 -6.3612,3.42457 -0.26099,0.46715 0.55465,1.26885 0.55117,2.37478 -0.007,2.28089 -1.54813,3.62194 -1.86068,2.43563 -1.64124,-6.22947 -11.61299,8.90479 -11.57677,4.7691 0.0301,-3.44023 -1.46387,-5.72226 -0.91884,-8.78784 0.12888,-0.72491 2.27791,-0.91473 3.91691,-1.85203 0.95614,-0.54679 -1.67692,0.044 -1.04089,-0.29749 2.22209,-1.1929 2.77293,-2.88412 2.16807,-2.39882 -1.73506,1.39211 -5.46025,3.67477 -6.30359,2.51414 -1.54103,-2.1208 -1.20318,-3.0695 -4.47397,-6.1194 -1.16512,-1.08643 3.13521,-0.61388 5.20223,-0.86402 z"
       id="path15418"
       sodipodi:nodetypes="sssssssssssssssssssssssss" />
  </g>
  <g
     inkscape:groupmode="layer"
     id="layer4"
     inkscape:label="face"
     style="display:inline">
    <path
       style="fill:none;stroke:#18526f;stroke-width:11.9062;stroke-linecap:round;stroke-linejoin:round;stroke-miterlimit:4;stroke-dasharray:none;stroke-opacity:1"
       d="m 176.87281,212.52032 33.28656,22.1181 -33.93644,17.11938"
       id="path1892"
       sodipodi:nodetypes="ccc" />
    <path
       style="fill:none;stroke:#18526f;stroke-width:11.9062;stroke-linecap:round;stroke-linejoin:round;stroke-miterlimit:4;stroke-dasharray:none;stroke-opacity:1"
       d="m 332.86568,209.19994 -30.03675,22.34947 27.28651,17.41163"
       id="path1894"
       sodipodi:nodetypes="ccc" />
    <path
       style="fill:none;stroke:#18526f;stroke-width:11.9062;stroke-linecap:round;stroke-linejoin:round;stroke-miterlimit:4;stroke-dasharray:none;stroke-opacity:1"
       d="m 233.3292,257.67746 c -25.95241,29.14881 7.75523,52.52597 26.05764,16.9937 11.58623,27.73311 39.26627,14.64329 27.02237,-12.40056"
       id="path1896"
       sodipodi:nodetypes="ccc" />
    <path
       style="fill:none;stroke:#fbaecb;stroke-width:8.99583;stroke-linecap:round;stroke-linejoin:round;stroke-miterlimit:4;stroke-dasharray:none;stroke-opacity:1"
       d="m 177.30924,271.10366 5.99956,-5.86831 7.92049,3.89439 7.57586,-6.20818 6.99081,4.17012 6.56216,-5.95469"
       id="path1898"
       sodipodi:nodetypes="cccccc" />
    <path
       style="fill:none;stroke:#fbaecb;stroke-width:8.99583;stroke-linecap:round;stroke-linejoin:round;stroke-miterlimit:4;stroke-dasharray:none;stroke-opacity:1"
       d="m 299.98686,258.42091 5.81476,4.4638 9.46849,-3.55561 7.48122,5.00797 6.06012,-2.94131"
       id="path1900"
       sodipodi:nodetypes="ccccc" />
  </g>
  <g
     inkscape:groupmode="layer"
     id="layer9"
     inkscape:label="tail top"
     style="display:inline">
    <path
       id="path52097"
       style="color:#000000;opacity:1;fill:#81bdf3;fill-opacity:1;stroke:none;stroke-width:1;stroke-linecap:round;stroke-linejoin:round;-inkscape-stroke:none"
       d="m 273.368,407.54903 c -32.06033,12.29182 -56.47408,20.90512 -75.83378,24.33574 -20.32974,3.60248 -34.63137,1.77919 -48.15625,-6.88282 -14.26126,-9.13363 -16.20065,-23.70513 -14.17969,-38.04687 1.01048,-7.17087 3.13499,-14.03176 5.24414,-19.29297 1.05458,-2.63062 2.10612,-4.86592 2.97656,-6.51171 0.87045,-1.64582 1.7777,-2.87208 1.58985,-2.66018 a 5.5562499,5.5562499 0 0 0 -0.47266,-7.8418 5.5562499,5.5562499 0 0 0 -7.84375,0.47072 c -1.26277,1.42452 -2.01423,2.79112 -3.0957,4.83593 -1.08148,2.0448 -2.27638,4.59793 -3.46875,7.57227 -2.38476,5.9487 -4.76195,13.56431 -5.9336,21.87889 -2.34329,16.6292 0.63468,37.07043 19.19141,48.95509 16.04585,10.27658 34.1432,12.35318 56.08594,8.46484 21.94274,-3.88832 48.18496,-13.45136 82.76953,-26.78319 0.99396,-0.38317 1.98496,-0.76946 2.97307,-1.15879" />
  </g>
</svg>
