<?xml version="1.0" encoding="UTF-8" standalone="no"?>
<!-- Created with Inkscape (http://www.inkscape.org/) -->

<svg
   width="63.383781mm"
   height="55.381695mm"
   viewBox="0 0 63.383781 55.381695"
   version="1.1"
   id="svg1"
   xml:space="preserve"
   sodipodi:docname="owofreebsd.svg"
   inkscape:version="1.4 (e7c3feb100, 2024-10-09)"
   xmlns:inkscape="http://www.inkscape.org/namespaces/inkscape"
   xmlns:sodipodi="http://sodipodi.sourceforge.net/DTD/sodipodi-0.dtd"
   xmlns="http://www.w3.org/2000/svg"
   xmlns:svg="http://www.w3.org/2000/svg"><sodipodi:namedview
     id="namedview1"
     pagecolor="#ffffff"
     bordercolor="#000000"
     borderopacity="0.25"
     inkscape:showpageshadow="2"
     inkscape:pageopacity="0.0"
     inkscape:pagecheckerboard="0"
     inkscape:deskcolor="#d1d1d1"
     inkscape:document-units="mm"
     showgrid="false"
     inkscape:zoom="2.5674077"
     inkscape:cx="74.394106"
     inkscape:cy="74.783604"
     inkscape:window-width="1910"
     inkscape:window-height="965"
     inkscape:window-x="0"
     inkscape:window-y="0"
     inkscape:window-maximized="0"
     inkscape:current-layer="svg1" /><defs
     id="defs1" /><g
     id="layer1"
     style="display:inline"
     transform="translate(-33.913455,-147.84373)"><path
       id="path2-7"
       style="fill:#b5010f;display:inline;fill-opacity:1"
       d="m 131.47297,6.4901041 c -67.719,0 -122.6191564,54.8891659 -122.6191564,122.6141759 0,67.713 54.9011564,122.61167 122.6191564,122.61167 67.72,0 122.61417,-54.89867 122.61417,-122.61167 0,-21.87 -5.73821,-42.375116 -15.76521,-60.154116 -2.167,3.955 -4.27589,7.575647 -6.19989,10.684647 1.899,6.44 1.55932,11.761355 -1.52068,14.835355 -7.193,7.196004 -26.6236,-0.463826 -44.1396,-17.133826 a 89.383,89.383 0 0 1 -3.6272,-3.427762 c -6.334,-6.336 -11.26205,-13.081692 -14.41405,-19.292692 -6.135,-11.006 -7.67088,-20.724948 -3.03388,-25.362948 2.527,-2.524 6.57032,-3.212892 11.50232,-2.325892 3.216,-2.034 7.01275,-4.30019 11.17575,-6.62119 -16.929,-8.83 -36.17473,-13.8157519 -56.59173,-13.8157519 z M 114.1098,114.60048 c 1.43877,0.0152 2.82404,0.36199 4.78391,1.10436 5.05336,1.9141 7.35343,4.23209 10.8043,10.88408 3.55473,6.85214 4.43182,13.73651 2.4655,19.35252 -1.28531,3.67094 -2.15397,4.66611 -5.02074,5.7387 -2.26626,0.84759 -7.13686,1.06757 -9.71989,0.43875 -4.41289,-1.07432 -9.0134,-5.89224 -12.11308,-12.68895 -2.88268,-6.32087 -3.1683,-13.82462 -0.71298,-18.66198 1.79501,-3.53645 3.74356,-5.23074 6.73088,-5.85088 1.03618,-0.21511 1.91883,-0.32573 2.7821,-0.3166 z m -74.757628,3.49756 c 1.989548,0.023 3.971412,1.26227 5.726233,3.70697 1.13341,1.57902 1.291516,2.14417 1.415977,5.10799 0.174883,4.16464 -1.09248,11.3655 -2.59762,14.76306 -1.462144,3.3005 -2.778577,4.94889 -4.766459,5.96306 -1.670598,0.85213 -5.142134,1.32784 -6.66357,0.9149 -1.622144,-0.44044 -3.578412,-2.3293 -4.532125,-4.37756 -1.357509,-2.91506 -1.362718,-7.57447 -0.01247,-11.51479 1.087254,-3.17281 3.928539,-8.60396 5.666403,-10.97133 1.778408,-2.42273 3.774079,-3.61527 5.763626,-3.5923 z"
       inkscape:label="body"
       transform="matrix(0.20729295,0,0,0.20729295,36.800831,151.04177)" /><path
       style="display:inline;fill:#b5010f;fill-opacity:1;fill-rule:nonzero"
       d="m 84.581258,192.59037 0.54913,0.50317 c 2.54761,2.33442 4.46074,3.44025 6.1231,3.53928 0.54983,0.0327 0.83181,-4.9e-4 1.48167,-0.17466 1.04356,-0.27969 1.29801,-0.39535 1.87068,-0.85029 1.62109,-1.28783 0.9439,-3.55466 -0.92777,-3.10566 -0.32884,0.0789 -0.50477,0.19459 -0.85048,0.55933 -0.47633,0.50255 -0.66761,0.55728 -1.14913,0.32878 -0.52445,-0.24886 -0.59492,-0.72503 -0.21783,-1.47203 0.77532,-1.53591 2.71591,-1.96297 4.34649,-0.95652 1.15055,0.71017 1.63683,1.89357 1.45188,3.5333 -0.15213,1.34878 -1.4419,2.8059 -3.08624,3.48669 -1.10989,0.45952 -2.6163,0.67798 -3.66715,0.53182 -0.70652,-0.0983 -2.45835,-0.68562 -3.14216,-1.0535 -0.92188,-0.49596 -2.00462,-1.3205 -2.94776,-2.24479 -0.54674,-0.53582 -1.02444,-0.97422 -1.06154,-0.97422 -0.0371,0 1.22711,-1.6507 1.22711,-1.6507 z m -17.43838,-6.98843 c 1.06836,-0.10636 1.93407,-0.77458 2.09164,-1.61448 0.11286,-0.60159 -0.35633,-1.44625 -0.98673,-1.77635 -0.32661,-0.17103 -1.2296,-0.37116 -1.67636,-0.37153 -0.55799,-4.7e-4 -1.102762,-0.006 -1.237297,0.20142 -0.07931,0.12215 -0.517153,0.86533 -0.998763,1.18154 -0.23702,0.15562 -0.61497,0.35212 -0.83989,0.43666 -0.40371,0.15175 -0.40822,0.15755 -0.35256,0.45426 0.11423,0.60889 0.54109,1.00936 1.36987,1.28516 0.90476,0.30108 1.32316,0.33343 2.63009,0.20332 z m -23.69084,-1.27686 c 0.57063,-0.23842 1.20501,-0.72319 1.32632,-1.01353 0.20051,-0.47989 0.16752,-0.54088 -0.28703,-0.53064 -0.49715,0.0112 -0.92034,-0.0768 -1.20199,-0.24994 -0.33899,-0.20838 -0.93459,-0.79855 -1.07425,-1.06444 -0.12274,-0.23368 -0.14722,-0.24189 -0.58638,-0.19657 -0.70223,0.0725 -1.13277,0.35017 -1.40485,0.9061 -0.40141,0.82017 -0.26091,1.50855 0.40229,1.97106 0.18904,0.13183 0.53194,0.27324 0.762,0.31423 0.53911,0.0961 1.68967,0.0201 2.06389,-0.13627 z m 37.13172,-15.30027 c -2.12358,-0.44442 -4.52192,-2.07677 -6.33264,-4.3101 -1.42898,-1.7625 -2.17315,-3.40815 -2.17535,-4.81052 -10e-4,-0.95077 0.2169,-1.33426 1.1627,-2.04168 1.34324,-1.00467 3.00942,-2.03903 5.02257,-3.11797 0.7187,-0.38519 1.74487,-0.93897 2.28039,-1.23062 2.48062,-1.35097 3.93144,-1.85543 6.68964,-2.32602 2.23476,-0.38129 3.47855,-1.0555 4.06391,-2.2029 0.18414,-0.36094 0.36133,-0.40816 0.40577,-0.10813 0.0141,0.0953 -0.0526,0.4054 -0.14816,0.68919 -0.22024,0.65376 -0.21975,0.65971 0.059,0.71913 0.28988,0.0618 0.78316,0.36305 0.78316,0.4783 0,0.0472 -0.16852,0.0859 -0.3745,0.0859 -0.50875,0 -0.81742,0.27505 -1.19017,1.06055 -0.31233,0.65818 -0.53652,1.30491 -1.65746,4.78145 -1.3682,4.24341 -2.44609,6.8766 -3.44849,8.42433 -0.21111,0.32597 -0.5167,0.82127 -0.67908,1.10067 -0.58685,1.00975 -2.1326,2.73342 -2.47163,2.75612 -0.660777,0.12583 -1.322879,0.15088 -1.98967,0.0528 z m 0.8615,-1.11454 c 2.10508,-1.20915 3.77647,-3.21787 5.10795,-6.13887 0.65464,-1.43615 0.93577,-2.2098 2.03458,-5.59913 0.56802,-1.75206 1.11086,-3.25876 1.36429,-3.7867 0.2315,-0.48226 0.40672,-0.89103 0.38937,-0.90838 -0.0742,-0.0742 -2.47975,0.48406 -3.4536,0.80153 -2.34535,0.76457 -4.00451,1.79909 -5.66909,3.53478 -1.29375,1.34902 -2.75972,3.41459 -3.22989,4.55097 -0.61394,1.48385 -0.99159,3.14391 -1.02333,4.49828 -0.0151,0.64194 0.0135,0.83111 0.18243,1.2093 0.27499,0.61559 1.03363,1.28639 1.99646,1.7653 0.71841,0.35733 0.79433,0.37697 1.32716,0.34329 0.41729,-0.0264 0.67206,-0.0971 0.97367,-0.27037 z m -44.38617,-12.06695 c -0.31786,-1.27399 -1.09908,-3.69914 -1.47987,-4.59399 -0.41327,-0.97117 -0.70043,-1.2384 -1.33635,-1.2436 -0.49898,-0.004 -0.43301,-0.15107 0.21104,-0.47025 l 0.51572,-0.25558 -0.16145,-0.41102 c -0.19028,-0.4844 -0.24317,-1.02515 -0.10028,-1.02515 0.054,0 0.25594,0.2363 0.4488,0.52511 0.69331,1.03824 1.98447,1.68338 3.9404,1.96887 1.21688,0.17761 2.96584,0.62609 4.02166,1.03126 0.91002,0.34922 3.0902,1.47608 5.8281,3.01237 l 0.976653,0.68067 -0.552543,0.37219 c -0.38773,0.23062 -0.78152,0.48589 -0.87509,0.56728 -0.0936,0.0814 -0.37967,0.28471 -0.63578,0.45183 -0.6895,0.44991 -1.649306,1.3262 -2.732396,2.39366 -1.52417,1.50217 -2.623468,3.20829 -3.804111,4.80849 l -0.4053,0.68021 c -1.786443,-3.40052 -2.754184,-5.60549 -3.859203,-8.49235 z"
       id="path1"
       sodipodi:nodetypes="cscssssscssscssscsssscssssscsscscsscccsccssssccsssssssccccsssssssccsccccccccsscsccccccccc"
       inkscape:label="ears_and_tail" /><path
       d="m 67.142878,185.60194 c 1.06836,-0.10636 1.93407,-0.77458 2.09164,-1.61448 0.11286,-0.60159 -0.35633,-1.44625 -0.98673,-1.77635 -0.32661,-0.17103 -1.2296,-0.37116 -1.67636,-0.37153 -0.55799,-4.7e-4 -1.102762,-0.006 -1.237297,0.20142 -0.07931,0.12215 -0.517153,0.86533 -0.998763,1.18154 -0.23702,0.15562 -0.61497,0.35212 -0.83989,0.43666 -0.40371,0.15175 -0.40822,0.15755 -0.35256,0.45426 0.11423,0.60889 0.54109,1.00936 1.36987,1.28516 0.90476,0.30108 1.32316,0.33343 2.63009,0.20332 z m -23.69084,-1.27686 c 0.57063,-0.23842 1.20501,-0.72319 1.32632,-1.01353 0.20051,-0.47989 0.16752,-0.54088 -0.28703,-0.53064 -0.49715,0.0112 -0.92034,-0.0768 -1.20199,-0.24994 -0.33899,-0.20838 -0.93459,-0.79855 -1.07425,-1.06444 -0.12274,-0.23368 -0.14722,-0.24189 -0.58638,-0.19657 -0.70223,0.0725 -1.13277,0.35017 -1.40485,0.9061 -0.40141,0.82017 -0.26091,1.50855 0.40229,1.97106 0.18904,0.13183 0.53194,0.27324 0.762,0.31423 0.53911,0.0961 1.68967,0.0201 2.06389,-0.13627 z"
       style="display:inline;fill:#df8696;fill-opacity:1;fill-rule:nonzero"
       id="path1-3" /><path
       style="display:inline;fill:#491d1a;fill-opacity:1"
       d="m 61.056953,183.8446 c -0.552793,-0.13518 -1.054205,-0.49026 -1.906779,-1.3503 -0.813994,-0.82113 -0.932128,-0.98252 -1.370467,-1.87226 -0.597979,-1.21377 -0.738417,-1.73396 -0.800029,-2.96333 -0.05777,-1.15269 0.0419,-1.78994 0.390634,-2.49767 0.271392,-0.55077 0.874657,-1.23301 1.27193,-1.43845 0.224096,-0.11588 2.332222,-0.33035 2.463252,-0.25059 0.0267,0.0162 0.324025,0.087 0.660728,0.15719 0.336704,0.0702 0.819732,0.24639 1.073397,0.39152 0.600676,0.34367 1.414552,1.02674 1.636931,1.37383 0.09672,0.15098 0.308271,0.44595 0.470101,0.6555 0.301705,0.39067 0.689756,1.28062 0.928629,2.1297 0.09392,0.33383 0.134673,0.83748 0.134673,1.66427 0,1.13119 -0.01148,1.21117 -0.250322,1.7435 -0.424972,0.94718 -1.393861,1.81819 -2.408766,2.16543 -0.517743,0.17714 -1.743962,0.22614 -2.293912,0.0917 z m 2.099545,-1.36076 c 0.594261,-0.22234 0.774676,-0.42846 1.041113,-1.18942 0.407604,-1.16416 0.225766,-2.59148 -0.511104,-4.01188 -0.715342,-1.37891 -1.192114,-1.85915 -2.23964,-2.25593 -0.650027,-0.24622 -0.995719,-0.28221 -1.5685,-0.1633 -0.619249,0.12855 -1.023496,0.47991 -1.395589,1.21299 -0.50897,1.00275 -0.44941,2.55782 0.14815,3.86809 0.642543,1.40891 1.595929,2.40778 2.510692,2.63048 0.535442,0.13035 1.545098,0.0847 2.014878,-0.091 z m -19.536284,0.27798 c -0.515043,-0.13103 -1.259808,-0.84011 -1.624972,-1.54711 -0.572672,-1.10876 -0.255611,-3.83658 0.590464,-5.08 0.377494,-0.55478 1.147544,-1.29503 1.537914,-1.47839 0.488428,-0.22942 1.757674,-0.32331 2.165371,-0.16018 0.408973,0.16363 0.797623,0.65837 1.055584,1.34371 0.180372,0.4792 0.207649,0.69043 0.205071,1.58796 -0.0016,0.56938 -0.05365,1.26383 -0.115586,1.54323 -0.265971,1.19982 -0.949841,2.46873 -1.714975,3.18212 -0.667974,0.6228 -0.768285,0.67102 -1.37405,0.66039 -0.308045,-0.005 -0.634214,-0.0287 -0.724821,-0.0517 z m 1.292031,-1.11576 c 0.412074,-0.21023 0.684969,-0.55152 0.988061,-1.23569 0.312005,-0.70429 0.574578,-2.19695 0.538326,-3.06025 -0.0258,-0.61438 -0.05828,-0.73167 -0.293228,-1.05899 -0.727524,-1.01354 -1.644787,-1.02803 -2.38209,-0.0236 -0.360247,0.49074 -0.949059,1.61618 -1.174439,2.27388 -0.279898,0.8168 -0.278902,1.78264 0.0025,2.38691 0.197698,0.42459 0.603358,0.81652 0.939617,0.90782 0.315383,0.0856 1.034989,-0.0134 1.381292,-0.19004 z m 8.524708,-0.0795 c -0.365721,-0.22391 -0.849282,-0.78711 -1.099126,-1.28016 -0.118833,-0.2345 -0.266781,-0.42637 -0.328775,-0.42637 -0.06199,0 -0.184342,0.15884 -0.271887,0.35298 -0.08754,0.19414 -0.369556,0.57092 -0.626692,0.83729 -0.401249,0.41565 -0.52425,0.49233 -0.86774,0.54091 -0.518919,0.0734 -0.935201,-0.11776 -1.231518,-0.56552 -0.502942,-0.76 -0.270711,-3.09611 0.359799,-3.61938 0.116099,-0.0964 0.157938,-0.0936 0.269476,0.018 0.119606,0.11961 0.118201,0.18668 -0.01493,0.7124 -0.191227,0.75514 -0.21201,1.9321 -0.04015,2.27368 0.134084,0.26651 0.368142,0.3496 0.729379,0.25893 0.227927,-0.0572 0.836462,-0.94127 1.175311,-1.70747 0.111535,-0.2522 0.264259,-0.48214 0.339387,-0.51097 0.241297,-0.0926 0.522279,0.11485 0.724135,0.5346 0.589472,1.2258 0.996759,1.74535 1.449862,1.84948 0.571626,0.13138 0.793972,-0.38294 0.718041,-1.66094 -0.02657,-0.44717 -0.110408,-0.96824 -0.186311,-1.15794 -0.300818,-0.75182 0.08687,-1.07169 0.540286,-0.44577 0.340519,0.47007 0.464574,1.05188 0.470175,2.20508 0.0052,1.0649 -0.09135,1.38349 -0.531331,1.75379 -0.297002,0.24997 -1.195404,0.27127 -1.577394,0.0374 z"
       id="path2"
       sodipodi:nodetypes="csssssccscssssscccssssssscccssscscssccccssccscccccsssscsccsscssccssscscc"
       inkscape:label="owo" /><path
       d="m 81.445258,167.91027 c 2.10508,-1.20915 3.77647,-3.21787 5.10795,-6.13887 0.65464,-1.43615 0.93577,-2.2098 2.03458,-5.59913 0.56802,-1.75206 1.11086,-3.25876 1.36429,-3.7867 0.2315,-0.48226 0.40672,-0.89103 0.38937,-0.90838 -0.0742,-0.0742 -2.47975,0.48406 -3.4536,0.80153 -2.34535,0.76457 -4.00451,1.79909 -5.66909,3.53478 -1.29375,1.34902 -2.75972,3.41459 -3.22989,4.55097 -0.61394,1.48385 -0.99159,3.14391 -1.02333,4.49828 -0.0151,0.64194 0.0135,0.83111 0.18243,1.2093 0.27499,0.61559 1.03363,1.28639 1.99646,1.7653 0.71841,0.35733 0.79433,0.37697 1.32716,0.34329 0.41729,-0.0264 0.67206,-0.0971 0.97367,-0.27037 z"
       style="display:inline;fill:#ffb6c7;fill-opacity:1;fill-rule:nonzero"
       id="path1-2"
       inkscape:label="ear" /><path
       d="m 82.489148,165.6449 c -0.0877,-0.19791 -0.29481,-0.49086 -0.46026,-0.65099 -0.28003,-0.27102 -0.29942,-0.32309 -0.28032,-0.75296 0.024,-0.53997 -0.0681,-0.61335 -0.39248,-0.31271 -0.12689,0.1176 -0.25202,0.21382 -0.27805,0.21382 -0.026,0 -0.32672,-0.13808 -0.6682,-0.30685 -0.54828,-0.27097 -0.72127,-0.31305 -1.47949,-0.35983 l -0.85862,-0.053 0.51002,-0.35912 c 0.78755,-0.55451 1.82229,-1.95446 2.17519,-2.94288 0.20298,-0.56851 0.22869,-0.58683 0.46718,-0.33295 0.14849,0.15807 0.20631,0.31568 0.20631,0.56237 0,0.49811 0.20861,0.60597 0.54628,0.28246 0.14086,-0.13495 0.27836,-0.3155 0.30557,-0.40121 0.0272,-0.0857 0.18957,-0.2277 0.36081,-0.31552 0.39221,-0.20115 0.61967,-0.44739 0.89508,-0.96897 l 0.21745,-0.41182 0.085,0.22349 c 0.127,0.33404 0.33376,0.3722 0.56433,0.10414 l 0.19614,-0.22803 0.17014,0.17014 0.17014,0.17014 -0.25262,0.28772 c -0.29492,0.3359 -0.33098,0.64173 -0.0833,0.7065 0.22481,0.0588 0.21519,0.11288 -0.0879,0.49422 -0.31768,0.39975 -0.29795,0.57987 0.0674,0.61518 0.15096,0.0146 0.27447,0.0456 0.27447,0.069 0,0.0233 -0.1143,0.13861 -0.254,0.25616 -0.48051,0.40432 -0.25453,0.73352 0.30699,0.44724 0.38995,-0.19881 0.3987,-0.19953 0.30095,-0.0249 -0.0428,0.0765 -0.06,0.20714 -0.0382,0.29038 0.0287,0.10979 -0.0514,0.19777 -0.29191,0.32045 -0.37451,0.19106 -1.37848,1.22156 -1.37848,1.4149 0,0.18388 0.2274,0.24249 0.55306,0.14254 0.40194,-0.12335 0.42287,-0.0382 0.0613,0.24914 -0.35069,0.2787 -0.88735,0.96233 -1.13219,1.44225 -0.0896,0.17563 -0.20237,0.31932 -0.25061,0.31932 -0.0482,0 -0.15945,-0.16193 -0.24713,-0.35983 z"
       style="display:inline;fill:#b5010f;fill-opacity:1;fill-rule:nonzero"
       id="path1-6"
       inkscape:label="ear_inside" /></g></svg>
